<mxfile host="Electron" agent="Mozilla/5.0 (X11; Linux x86_64) AppleWebKit/537.36 (KHTML, like Gecko) draw.io/26.0.4 Chrome/128.0.6613.186 Electron/32.2.5 Safari/537.36" version="26.0.4">
  <diagram name="Page-1" id="JV1zhk1S1sV_VMAkZT6g">
    <mxGraphModel dx="1006" dy="998" grid="1" gridSize="10" guides="1" tooltips="1" connect="1" arrows="1" fold="1" page="1" pageScale="1" pageWidth="850" pageHeight="1100" math="0" shadow="0">
      <root>
        <mxCell id="0" />
        <mxCell id="1" parent="0" />
        <mxCell id="Rv7THg5pRHFflZ9I0ugU-7" value="Origin" style="whiteSpace=wrap;html=1;labelPosition=center;verticalLabelPosition=middle;align=center;verticalAlign=top;fillColor=none;fontStyle=1" vertex="1" parent="1">
          <mxGeometry x="610" y="400" width="190" height="160" as="geometry" />
        </mxCell>
        <mxCell id="Rv7THg5pRHFflZ9I0ugU-1" value="Client" style="sketch=0;outlineConnect=0;fontColor=#232F3E;gradientColor=none;fillColor=#232F3D;strokeColor=none;dashed=0;verticalLabelPosition=bottom;verticalAlign=top;align=center;html=1;fontSize=12;fontStyle=0;aspect=fixed;pointerEvents=1;shape=mxgraph.aws4.client;" vertex="1" parent="1">
          <mxGeometry x="70" y="442" width="78" height="76" as="geometry" />
        </mxCell>
        <mxCell id="Rv7THg5pRHFflZ9I0ugU-2" value="HTTP" style="sketch=0;outlineConnect=0;fontColor=#232F3E;gradientColor=none;fillColor=#232F3D;strokeColor=none;dashed=0;verticalLabelPosition=bottom;verticalAlign=top;align=center;html=1;fontSize=12;fontStyle=0;aspect=fixed;pointerEvents=1;shape=mxgraph.aws4.traditional_server;" vertex="1" parent="1">
          <mxGeometry x="740" y="441" width="45" height="78" as="geometry" />
        </mxCell>
        <mxCell id="Rv7THg5pRHFflZ9I0ugU-3" value="Amazon S3" style="sketch=0;points=[[0,0,0],[0.25,0,0],[0.5,0,0],[0.75,0,0],[1,0,0],[0,1,0],[0.25,1,0],[0.5,1,0],[0.75,1,0],[1,1,0],[0,0.25,0],[0,0.5,0],[0,0.75,0],[1,0.25,0],[1,0.5,0],[1,0.75,0]];outlineConnect=0;fontColor=#232F3E;fillColor=#7AA116;strokeColor=#ffffff;dashed=0;verticalLabelPosition=bottom;verticalAlign=top;align=center;html=1;fontSize=12;fontStyle=0;aspect=fixed;shape=mxgraph.aws4.resourceIcon;resIcon=mxgraph.aws4.s3;" vertex="1" parent="1">
          <mxGeometry x="622" y="441" width="78" height="78" as="geometry" />
        </mxCell>
        <mxCell id="Rv7THg5pRHFflZ9I0ugU-9" value="&amp;nbsp;Forward Request&lt;div&gt;to your Origin&amp;nbsp;&lt;/div&gt;" style="edgeStyle=orthogonalEdgeStyle;rounded=0;orthogonalLoop=1;jettySize=auto;html=1;startArrow=classic;startFill=1;" edge="1" parent="1" source="Rv7THg5pRHFflZ9I0ugU-4" target="Rv7THg5pRHFflZ9I0ugU-7">
          <mxGeometry relative="1" as="geometry" />
        </mxCell>
        <mxCell id="Rv7THg5pRHFflZ9I0ugU-4" value="CloudFront Edge Location" style="sketch=0;outlineConnect=0;fontColor=#232F3E;gradientColor=none;fillColor=#8C4FFF;strokeColor=none;dashed=0;verticalLabelPosition=middle;verticalAlign=middle;align=right;html=1;fontSize=12;fontStyle=0;aspect=fixed;pointerEvents=1;shape=mxgraph.aws4.edge_location;labelPosition=left;spacingLeft=0;spacingRight=5;" vertex="1" parent="1">
          <mxGeometry x="340" y="441" width="78" height="78" as="geometry" />
        </mxCell>
        <mxCell id="Rv7THg5pRHFflZ9I0ugU-6" style="edgeStyle=orthogonalEdgeStyle;rounded=0;orthogonalLoop=1;jettySize=auto;html=1;startArrow=classic;startFill=1;" edge="1" parent="1" source="Rv7THg5pRHFflZ9I0ugU-5" target="Rv7THg5pRHFflZ9I0ugU-4">
          <mxGeometry relative="1" as="geometry" />
        </mxCell>
        <mxCell id="Rv7THg5pRHFflZ9I0ugU-5" value="Local Cache" style="sketch=0;outlineConnect=0;fontColor=#232F3E;gradientColor=none;fillColor=#C925D1;strokeColor=none;dashed=0;verticalLabelPosition=bottom;verticalAlign=top;align=center;html=1;fontSize=12;fontStyle=0;aspect=fixed;pointerEvents=1;shape=mxgraph.aws4.cache_node;" vertex="1" parent="1">
          <mxGeometry x="340" y="598" width="78" height="78" as="geometry" />
        </mxCell>
        <mxCell id="Rv7THg5pRHFflZ9I0ugU-8" value="OR" style="text;html=1;align=center;verticalAlign=middle;resizable=0;points=[];autosize=1;strokeColor=none;fillColor=none;fontStyle=1" vertex="1" parent="1">
          <mxGeometry x="700" y="461" width="40" height="30" as="geometry" />
        </mxCell>
        <mxCell id="Rv7THg5pRHFflZ9I0ugU-11" style="edgeStyle=orthogonalEdgeStyle;rounded=0;orthogonalLoop=1;jettySize=auto;html=1;" edge="1" parent="1" source="Rv7THg5pRHFflZ9I0ugU-10" target="Rv7THg5pRHFflZ9I0ugU-4">
          <mxGeometry relative="1" as="geometry" />
        </mxCell>
        <mxCell id="Rv7THg5pRHFflZ9I0ugU-12" style="edgeStyle=orthogonalEdgeStyle;rounded=0;orthogonalLoop=1;jettySize=auto;html=1;" edge="1" parent="1" source="Rv7THg5pRHFflZ9I0ugU-10" target="Rv7THg5pRHFflZ9I0ugU-1">
          <mxGeometry relative="1" as="geometry" />
        </mxCell>
        <mxCell id="Rv7THg5pRHFflZ9I0ugU-10" value="&lt;div&gt;GET /book.jpg?&lt;b&gt;size=500x500&lt;/b&gt; HTTP/1.1&lt;/div&gt;&lt;div&gt;&lt;font style=&quot;color: rgb(0, 153, 0);&quot;&gt;User-Agent: Mozilla/4.0 (compatible; MSIE5.01; Windows NT)&lt;/font&gt;&lt;/div&gt;&lt;div&gt;&lt;font style=&quot;color: rgb(0, 153, 0);&quot;&gt;Host: www.bookstore.com&lt;/font&gt;&lt;/div&gt;&lt;div&gt;&lt;font style=&quot;color: rgb(0, 153, 0);&quot;&gt;Accept-Encoding: gzip, deflate&lt;/font&gt;&lt;/div&gt;" style="text;html=1;align=left;verticalAlign=middle;resizable=0;points=[];autosize=1;strokeColor=none;fillColor=none;fontSize=14;" vertex="1" parent="1">
          <mxGeometry x="174" y="275" width="410" height="80" as="geometry" />
        </mxCell>
      </root>
    </mxGraphModel>
  </diagram>
</mxfile>
